<?xml version="1.0" encoding="UTF-8" standalone="no"?>
<!-- Uploaded to: SVG Repo, www.svgrepo.com, Generator: SVG Repo Mixer Tools -->

<svg
   width="851"
   height="851"
   viewBox="0 0 544.64 544.64"
   version="1.1"
   id="svg1"
   sodipodi:docname="blackthorn.svg"
   xml:space="preserve"
   inkscape:version="1.4.1 (93de688d07, 2025-03-30)"
   xmlns:inkscape="http://www.inkscape.org/namespaces/inkscape"
   xmlns:sodipodi="http://sodipodi.sourceforge.net/DTD/sodipodi-0.dtd"
   xmlns="http://www.w3.org/2000/svg"
   xmlns:svg="http://www.w3.org/2000/svg"><defs
     id="defs1" /><sodipodi:namedview
     id="namedview1"
     pagecolor="#ffffff"
     bordercolor="#666666"
     borderopacity="1.0"
     inkscape:showpageshadow="2"
     inkscape:pageopacity="0.0"
     inkscape:pagecheckerboard="0"
     inkscape:deskcolor="#d1d1d1"
     inkscape:zoom="1"
     inkscape:cx="390"
     inkscape:cy="587"
     inkscape:current-layer="svg1"
     showgrid="false" /><path
     id="path1"
     d="M 454.15123,3.1785916 C 448.84094,26.992967 440.39916,46.72195 429.63498,63.633592 c 4.62735,21.204974 0.26949,51.031398 -34.25375,87.337498 0,0 16.21819,-25.01042 18.86375,-66.951248 -13.31932,15.523436 -28.78311,28.565188 -45.48625,40.553748 -21.96131,15.76704 -33.58714,42.26404 -30.29375,69.10375 0,0 -14.25642,-14.85996 -16.435,-38.65625 -18.46899,11.45775 -29.37724,31.96961 -28.5475,53.68625 0.19679,5.53474 0.64694,11.26723 1.38625,17.19875 0,0 -15.87854,-16.40694 -16.74125,-42.435 -0.10851,0.0713 -0.21737,0.1527 -0.32375,0.225 -12.24174,8.55794 -20.32383,21.88817 -22.26625,36.6925 -2.73706,20.73692 -3.35043,45.89064 1.02375,74.71 0,0 -26.38781,-33.30015 -28.71,-69.60625 -0.3404,0.35849 -0.71872,0.66545 -1.06125,1.025 -12.32897,12.82468 -17.56743,30.88879 -14.04,48.33125 1.58393,7.9016 3.78107,16.15647 6.67875,24.7325 0,0 -17.26128,-11.84551 -24.10125,-35.07375 -0.39679,0.56592 -0.79321,1.13366 -1.19,1.69 -23.11229,33.0861 -29.21367,75.16252 -16.3975,113.43125 0.0723,0.21595 0.14395,0.43031 0.21625,0.64625 0,0 -12.16856,-8.27824 -20.1425,-24.60375 -2.10518,20.33056 0.44996,38.58223 5.86875,54.22375 C 227.908,367.47851 288.96469,313.45886 339.79748,261.48359 189.13409,452.92406 67.325701,494.17148 27.797478,515.17859 90.670959,513.97122 144.1333,493.38852 196.85748,457.24734 c 35.40722,26.76524 86.86879,14.2451 125.5875,-7.85875 -36.99223,0.2436 -56.5575,-33.84875 -56.5575,-33.84875 27.19819,5.81344 55.00896,2.79081 79.435,-3.4375 26.17273,-6.67722 49.15933,-21.96123 65.4125,-43.58 0.0191,-0.0181 0.0375,-0.0444 0.0375,-0.0625 -23.5995,10.2057 -44.98375,3.15 -44.98375,3.15 12.40237,-4.19334 23.40083,-9.18886 33.10125,-14.58 22.5719,-12.54703 40.39385,-31.861 51.0325,-55.40625 v -10e-4 -10e-4 c 2.5e-4,-5.5e-4 9.1e-4,-0.002 10e-4,-0.002 0.004,-0.005 0.0119,-0.0118 0.015,-0.0162 v -10e-4 h 10e-4 v -0.001 -10e-4 c -29.64697,26.49611 -63.6675,15.17375 -63.6675,15.17375 0.0532,-0.0192 0.0885,-0.038 0.14375,-0.045 47.52024,-16.12127 82.6751,-56.89121 91.72875,-106.2475 0.10851,-0.59358 0.21525,-1.18892 0.32375,-1.7825 -21.16774,34.41686 -57.49125,32.905 -57.49125,32.905 34.34346,-23.75268 52.65037,-51.25746 62.2625,-71.4625 -21.31348,24.80473 -50.76,23.5275 -50.76,23.5275 36.45021,-25.21183 55.17154,-69.26733 48.05925,-113.008048 C 475.5348,49.799313 466.42701,23.043229 454.15123,3.1785916 Z M 276.75498,74.984842 c -16.73,9.388 -34.4695,42.042998 -41.6875,59.469998 -14.608,-2.407 -28.8705,-3.664 -42.5625,-3.75 -11.446,-0.074 -22.49,0.6795 -33.03,2.2175 -16.34,-8.284 -34.76625,-29.065 -42.62625,-49.999998 -9.324,15.704 -9.55725,42.313748 -5.78125,64.593748 -19.443003,9.72 -35.107003,23.6325 -45.530003,41.6875 -7.262,12.577 -11.5,26.34 -12.97,40.875 13.294,-25.904 35.00025,-46.957 65.656253,-54.345 -34.990003,31.783 -59.850003,87.18625 -51.500003,129.40625 -1.2,22.87 -9.48,37.647 -24.75,44.595 16.335,4.59 35.4965,3.343 49.4375,-1.28 15.814343,22.0792 36.026563,43.452 59.981253,62.8825 -5.41286,-16.99119 -7.38072,-35.05105 -5.96125,-52.82125 1.15641,-12.8517 2.45935,-25.68937 3.695,-38.53375 -26.19462,-31.33716 -40.18656,-63.58692 -37.9025,-90.37125 16.275,-1.708 36.144,0.927 51.72,8 -3.92,-15.382 -18.55225,-31.73275 -34.40625,-44.34375 14.75677,-13.82578 37.69908,-20.8518 65.3425,-21.22 h 0.001 c 1.12958,-0.015 2.25717,-0.008 3.40375,0 19.50507,0.12361 41.2139,3.47232 63.94875,9.98125 2.76198,-2.87577 5.79189,-5.49415 9.055,-7.7975 6.28776,-4.48662 12.73954,-8.73902 19.00375,-13.26 0.16044,3.84246 0.32155,7.68506 0.4825,11.5275 3.36041,-6.36592 7.67232,-12.23613 12.7525,-17.3375 -4.32081,-2.35301 -8.65726,-4.56323 -12.99125,-6.61375 -15.89375,-25.424 -19.32175,-56.117498 -12.77975,-73.562498 z M 464.20623,273.37234 c -3.13944,4.37251 -6.51461,8.57668 -10.11125,12.58375 4.66977,-2.38631 9.33883,-4.77399 14.00875,-7.16 -1.26973,-1.81266 -2.56864,-3.62059 -3.8975,-5.42375 z m 50.6425,6.6125 c -8.535,10.373 -20.727,15.1395 -36.75,14.1875 -2.47288,-4.12092 -5.10202,-8.22844 -7.8825,-12.31625 -3.07347,8.16917 -6.14565,16.33819 -9.21875,24.5075 -2.38158,5.39424 -5.1504,10.61396 -8.26375,15.62 3.41243,6.16074 6.29428,12.27145 8.615,18.2825 l 0.0937,0.22 c 16.088,37.88 13.36,85.18525 -26.56,117.31125 4.79,-11.41 7.986,-23.8275 9.5,-36.4375 -14.078,10.012 -33.52375,15.304 -56.31375,15.97 -0.8072,-7.12273 -2.50415,-17.38342 -5.145,-27.88 -9.71523,5.78074 -20.18003,10.30337 -31.05125,13.4075 -1.24282,0.33885 -2.4891,0.66901 -3.7375,0.98875 -2.59762,3.29584 -5.45726,6.28704 -8.56625,8.82625 -5.3888,-1.09664 -10.86216,-2.38291 -16.4025,-3.86 -8.27292,1.1567 -16.61225,1.82071 -24.97,1.9075 6.5153,3.7714 13.8932,6.16692 21.4375,6.5 15.99722,0.23169 31.99599,0.32308 47.99375,0.53875 -11.20031,6.32548 -22.39974,12.6507 -33.6,18.97625 -11.33399,6.62234 -23.0823,12.59769 -35.385,17.2125 -6.29673,2.35895 -12.73451,4.4162 -19.27125,6.0725 10.99632,3.39851 21.91071,6.17731 32.665,8.33875 12.423,17.25 12.895,38.86675 7.375,53.59375 16.402,-9.2 33.8195,-33.187 39.9375,-48 47.1,1.423 88.04675,-10.5335 114.71875,-35.5625 17.536,5.52 30.7435,15.707 39.8125,30.5 0.243,-19.578 -8.05,-44.353 -18,-60.31 13.42,-28.268 12.786,-61.8095 0.5,-96.1575 l 0.405,0.47 c 9.976,-11.804 18.30475,-33.1905 18.06375,-52.9075 z m -355.87375,51.12 c 0.0973,0.19304 0.194,0.38571 0.29125,0.57875 0.005,-0.0843 0.0103,-0.1682 0.015,-0.2525 -0.10206,-0.10871 -0.20448,-0.2175 -0.30625,-0.32625 z m 37.8675,140.7125 c -4.01979,2.6558 -8.08471,5.24474 -12.195,7.76125 -2.79683,10.99887 -4.73743,21.63743 -4.64375,29.25 6.36895,-7.73834 18.16587,-20.38307 31.7375,-29.94875 -5.17473,-1.86751 -10.17321,-4.2149 -14.89875,-7.0625 z"
     style="stroke:#000000;stroke-width:2.4189;stroke-dasharray:none;fill:#ffffff" /></svg>
